<mxfile host="app.diagrams.net" agent="Mozilla/5.0 (Macintosh; Intel Mac OS X 10_15_7) AppleWebKit/537.36 (KHTML, like Gecko) Chrome/128.0.0.0 Safari/537.36" version="24.7.13">
  <diagram name="architecture" id="nBpWyTfYA8ze9wGykSNH">
    <mxGraphModel dx="1710" dy="1083" grid="1" gridSize="10" guides="1" tooltips="1" connect="1" arrows="1" fold="1" page="1" pageScale="1" pageWidth="850" pageHeight="1100" math="0" shadow="0">
      <root>
        <mxCell id="0" />
        <mxCell id="1" parent="0" />
        <object label="ETL &amp;amp; Advanced Analyser (AA)" label_es="ETL &amp;amp; Analizador Avanzado (AA)" id="C-zkIuJFeFxutX9zqk4B-11">
          <mxCell style="swimlane;html=1;startSize=20;fontStyle=0;collapsible=0;horizontal=0;swimlaneLine=1;swimlaneFillColor=#ffffff;strokeWidth=2;whiteSpace=wrap;" parent="1" vertex="1">
            <mxGeometry x="100" y="60" width="520" height="230" as="geometry" />
          </mxCell>
        </object>
        <object label="ETL and AA&lt;div&gt;process&lt;/div&gt;" label_es="Proceso de&lt;div&gt;ETL y AA&lt;/div&gt;" id="C-zkIuJFeFxutX9zqk4B-4">
          <mxCell style="points=[[0.25,0,0],[0.5,0,0],[0.75,0,0],[1,0.25,0],[1,0.5,0],[1,0.75,0],[0.75,1,0],[0.5,1,0],[0.25,1,0],[0,0.75,0],[0,0.5,0],[0,0.25,0]];shape=mxgraph.bpmn.task;whiteSpace=wrap;rectStyle=rounded;size=10;html=1;container=1;expand=0;collapsible=0;taskMarker=abstract;isLoopSub=1;strokeWidth=2;" parent="C-zkIuJFeFxutX9zqk4B-11" vertex="1">
            <mxGeometry x="210" y="120" width="120" height="80" as="geometry" />
          </mxCell>
        </object>
        <mxCell id="C-zkIuJFeFxutX9zqk4B-5" value="" style="points=[[0.145,0.145,0],[0.5,0,0],[0.855,0.145,0],[1,0.5,0],[0.855,0.855,0],[0.5,1,0],[0.145,0.855,0],[0,0.5,0]];shape=mxgraph.bpmn.event;html=1;verticalLabelPosition=bottom;labelBackgroundColor=#ffffff;verticalAlign=top;align=center;perimeter=ellipsePerimeter;outlineConnect=0;aspect=fixed;outline=standard;symbol=general;strokeWidth=2;" parent="C-zkIuJFeFxutX9zqk4B-11" vertex="1">
          <mxGeometry x="60" y="135" width="50" height="50" as="geometry" />
        </mxCell>
        <mxCell id="C-zkIuJFeFxutX9zqk4B-6" style="edgeStyle=orthogonalEdgeStyle;rounded=0;orthogonalLoop=1;jettySize=auto;html=1;entryX=0;entryY=0.5;entryDx=0;entryDy=0;entryPerimeter=0;endArrow=block;endFill=1;strokeWidth=2;" parent="C-zkIuJFeFxutX9zqk4B-11" source="C-zkIuJFeFxutX9zqk4B-5" target="C-zkIuJFeFxutX9zqk4B-4" edge="1">
          <mxGeometry relative="1" as="geometry" />
        </mxCell>
        <mxCell id="C-zkIuJFeFxutX9zqk4B-7" value="" style="points=[[0.145,0.145,0],[0.5,0,0],[0.855,0.145,0],[1,0.5,0],[0.855,0.855,0],[0.5,1,0],[0.145,0.855,0],[0,0.5,0]];shape=mxgraph.bpmn.event;html=1;verticalLabelPosition=bottom;labelBackgroundColor=#ffffff;verticalAlign=top;align=center;perimeter=ellipsePerimeter;outlineConnect=0;aspect=fixed;outline=end;symbol=terminate2;strokeWidth=2;" parent="C-zkIuJFeFxutX9zqk4B-11" vertex="1">
          <mxGeometry x="430" y="135" width="50" height="50" as="geometry" />
        </mxCell>
        <mxCell id="C-zkIuJFeFxutX9zqk4B-8" style="edgeStyle=orthogonalEdgeStyle;rounded=0;orthogonalLoop=1;jettySize=auto;html=1;entryX=0;entryY=0.5;entryDx=0;entryDy=0;entryPerimeter=0;strokeColor=default;strokeWidth=2;align=center;verticalAlign=middle;fontFamily=Helvetica;fontSize=11;fontColor=default;labelBackgroundColor=default;endArrow=block;endFill=1;" parent="C-zkIuJFeFxutX9zqk4B-11" source="C-zkIuJFeFxutX9zqk4B-4" target="C-zkIuJFeFxutX9zqk4B-7" edge="1">
          <mxGeometry relative="1" as="geometry" />
        </mxCell>
        <object label="Repository of&lt;div&gt;solutions&lt;/div&gt;" label_es="Repositorio de&lt;div&gt;soluciones&lt;/div&gt;" id="C-zkIuJFeFxutX9zqk4B-9">
          <mxCell style="shape=datastore;html=1;labelPosition=center;verticalLabelPosition=bottom;align=center;verticalAlign=top;strokeWidth=2;" parent="C-zkIuJFeFxutX9zqk4B-11" vertex="1">
            <mxGeometry x="130" y="40" width="60" height="60" as="geometry" />
          </mxCell>
        </object>
        <mxCell id="C-zkIuJFeFxutX9zqk4B-10" style="edgeStyle=orthogonalEdgeStyle;rounded=1;orthogonalLoop=1;jettySize=auto;html=1;entryX=0.25;entryY=0;entryDx=0;entryDy=0;entryPerimeter=0;dashed=1;dashPattern=1 2;strokeWidth=2;flowAnimation=0;curved=0;endArrow=open;endFill=0;" parent="C-zkIuJFeFxutX9zqk4B-11" source="C-zkIuJFeFxutX9zqk4B-9" target="C-zkIuJFeFxutX9zqk4B-4" edge="1">
          <mxGeometry relative="1" as="geometry" />
        </mxCell>
        <object label="Database" label_es="Base de datos" id="C-zkIuJFeFxutX9zqk4B-12">
          <mxCell style="shape=datastore;html=1;labelPosition=center;verticalLabelPosition=bottom;align=center;verticalAlign=top;strokeWidth=2;" parent="C-zkIuJFeFxutX9zqk4B-11" vertex="1">
            <mxGeometry x="350" y="40" width="60" height="60" as="geometry" />
          </mxCell>
        </object>
        <mxCell id="C-zkIuJFeFxutX9zqk4B-13" style="edgeStyle=orthogonalEdgeStyle;rounded=1;orthogonalLoop=1;jettySize=auto;html=1;entryX=0;entryY=0.5;entryDx=0;entryDy=0;dashed=1;dashPattern=1 2;strokeWidth=2;flowAnimation=0;curved=0;endArrow=open;endFill=0;exitX=0.75;exitY=0;exitDx=0;exitDy=0;exitPerimeter=0;" parent="C-zkIuJFeFxutX9zqk4B-11" source="C-zkIuJFeFxutX9zqk4B-4" target="C-zkIuJFeFxutX9zqk4B-12" edge="1">
          <mxGeometry relative="1" as="geometry">
            <mxPoint x="180" y="80" as="sourcePoint" />
            <mxPoint x="250" y="130" as="targetPoint" />
          </mxGeometry>
        </mxCell>
        <object label="&lt;span style=&quot;font-size: 12px;&quot;&gt;Visual Knowledge Explorer&lt;/span&gt;" label_es="&lt;font style=&quot;font-size: 12px;&quot;&gt;Explorador Visual&lt;/font&gt;&lt;div style=&quot;font-size: 12px;&quot;&gt;&lt;font style=&quot;font-size: 12px;&quot;&gt;de Conocimiento&lt;/font&gt;&lt;/div&gt;" id="C-zkIuJFeFxutX9zqk4B-30">
          <mxCell style="points=[[0.25,0,0],[0.5,0,0],[0.75,0,0],[1,0.25,0],[1,0.5,0],[1,0.75,0],[0.75,1,0],[0.5,1,0],[0.25,1,0],[0,0.75,0],[0,0.5,0],[0,0.25,0]];rounded=1;dashed=1;dashPattern=5 2 1 2;labelPosition=center;verticalLabelPosition=middle;align=center;verticalAlign=top;fontSize=8;html=1;whiteSpace=wrap;strokeWidth=2;fillColor=none;glass=0;arcSize=6;" parent="1" vertex="1">
            <mxGeometry x="70" y="330" width="1170" height="337.14" as="geometry" />
          </mxCell>
        </object>
        <mxCell id="C-zkIuJFeFxutX9zqk4B-31" value="View Linker and Fact Analyser" style="swimlane;html=1;startSize=36;fontStyle=0;collapsible=0;horizontal=0;swimlaneLine=1;swimlaneFillColor=#ffffff;strokeWidth=2;whiteSpace=wrap;" parent="1" vertex="1">
          <mxGeometry x="101" y="383.57" width="519" height="230" as="geometry" />
        </mxCell>
        <object label="Analysis of&lt;div&gt;commits&lt;/div&gt;" label_es="AnÃ¡lisis de&lt;div&gt;commits&lt;/div&gt;" id="C-zkIuJFeFxutX9zqk4B-32">
          <mxCell style="points=[[0.25,0,0],[0.5,0,0],[0.75,0,0],[1,0.25,0],[1,0.5,0],[1,0.75,0],[0.75,1,0],[0.5,1,0],[0.25,1,0],[0,0.75,0],[0,0.5,0],[0,0.25,0]];shape=mxgraph.bpmn.task;whiteSpace=wrap;rectStyle=rounded;size=10;html=1;container=1;expand=0;collapsible=0;taskMarker=abstract;isLoopSub=1;strokeWidth=2;" parent="C-zkIuJFeFxutX9zqk4B-31" vertex="1">
            <mxGeometry x="210" y="120" width="120" height="80" as="geometry" />
          </mxCell>
        </object>
        <mxCell id="C-zkIuJFeFxutX9zqk4B-33" value="" style="points=[[0.145,0.145,0],[0.5,0,0],[0.855,0.145,0],[1,0.5,0],[0.855,0.855,0],[0.5,1,0],[0.145,0.855,0],[0,0.5,0]];shape=mxgraph.bpmn.event;html=1;verticalLabelPosition=bottom;labelBackgroundColor=#ffffff;verticalAlign=top;align=center;perimeter=ellipsePerimeter;outlineConnect=0;aspect=fixed;outline=standard;symbol=general;strokeWidth=2;" parent="C-zkIuJFeFxutX9zqk4B-31" vertex="1">
          <mxGeometry x="60" y="135" width="50" height="50" as="geometry" />
        </mxCell>
        <mxCell id="C-zkIuJFeFxutX9zqk4B-34" style="edgeStyle=orthogonalEdgeStyle;rounded=0;orthogonalLoop=1;jettySize=auto;html=1;entryX=0;entryY=0.5;entryDx=0;entryDy=0;entryPerimeter=0;endArrow=block;endFill=1;strokeWidth=2;" parent="C-zkIuJFeFxutX9zqk4B-31" source="C-zkIuJFeFxutX9zqk4B-33" target="C-zkIuJFeFxutX9zqk4B-32" edge="1">
          <mxGeometry relative="1" as="geometry" />
        </mxCell>
        <mxCell id="C-zkIuJFeFxutX9zqk4B-35" style="edgeStyle=orthogonalEdgeStyle;rounded=0;orthogonalLoop=1;jettySize=auto;html=1;strokeColor=default;strokeWidth=2;align=center;verticalAlign=middle;fontFamily=Helvetica;fontSize=11;fontColor=default;labelBackgroundColor=default;endArrow=block;endFill=1;" parent="C-zkIuJFeFxutX9zqk4B-31" source="C-zkIuJFeFxutX9zqk4B-32" target="C-zkIuJFeFxutX9zqk4B-40" edge="1">
          <mxGeometry relative="1" as="geometry">
            <mxPoint x="429.9999999999998" y="160" as="targetPoint" />
          </mxGeometry>
        </mxCell>
        <object label="Database" label_es="Base de datos" id="C-zkIuJFeFxutX9zqk4B-36">
          <mxCell style="shape=datastore;html=1;labelPosition=center;verticalLabelPosition=bottom;align=center;verticalAlign=top;strokeWidth=2;" parent="C-zkIuJFeFxutX9zqk4B-31" vertex="1">
            <mxGeometry x="110" y="40" width="60" height="60" as="geometry" />
          </mxCell>
        </object>
        <mxCell id="C-zkIuJFeFxutX9zqk4B-37" style="edgeStyle=orthogonalEdgeStyle;rounded=1;orthogonalLoop=1;jettySize=auto;html=1;entryX=0.25;entryY=0;entryDx=0;entryDy=0;entryPerimeter=0;dashed=1;dashPattern=1 2;strokeWidth=2;flowAnimation=0;curved=0;endArrow=open;endFill=0;" parent="C-zkIuJFeFxutX9zqk4B-31" source="C-zkIuJFeFxutX9zqk4B-36" target="C-zkIuJFeFxutX9zqk4B-32" edge="1">
          <mxGeometry relative="1" as="geometry" />
        </mxCell>
        <mxCell id="C-zkIuJFeFxutX9zqk4B-38" style="edgeStyle=orthogonalEdgeStyle;rounded=1;orthogonalLoop=1;jettySize=auto;html=1;entryX=0;entryY=0.5;entryDx=0;entryDy=0;dashed=1;dashPattern=1 2;strokeWidth=2;flowAnimation=0;curved=0;endArrow=open;endFill=0;exitX=0.75;exitY=0;exitDx=0;exitDy=0;exitPerimeter=0;entryPerimeter=0;" parent="C-zkIuJFeFxutX9zqk4B-31" source="C-zkIuJFeFxutX9zqk4B-32" target="C-zkIuJFeFxutX9zqk4B-39" edge="1">
          <mxGeometry relative="1" as="geometry">
            <mxPoint x="180" y="80" as="sourcePoint" />
            <mxPoint x="359.9999999999998" y="70" as="targetPoint" />
            <Array as="points">
              <mxPoint x="300" y="70" />
            </Array>
          </mxGeometry>
        </mxCell>
        <object label="History of&lt;div&gt;changes&lt;/div&gt;" label_es="Historial de&lt;div&gt;cambios&lt;/div&gt;" id="C-zkIuJFeFxutX9zqk4B-39">
          <mxCell style="shape=mxgraph.bpmn.data;labelPosition=center;verticalLabelPosition=bottom;align=center;verticalAlign=top;size=15;html=1;strokeWidth=2;" parent="C-zkIuJFeFxutX9zqk4B-31" vertex="1">
            <mxGeometry x="370" y="40" width="40" height="60" as="geometry" />
          </mxCell>
        </object>
        <mxCell id="C-zkIuJFeFxutX9zqk4B-40" value="" style="points=[[0.145,0.145,0],[0.5,0,0],[0.855,0.145,0],[1,0.5,0],[0.855,0.855,0],[0.5,1,0],[0.145,0.855,0],[0,0.5,0]];shape=mxgraph.bpmn.event;html=1;verticalLabelPosition=bottom;labelBackgroundColor=#ffffff;verticalAlign=top;align=center;perimeter=ellipsePerimeter;outlineConnect=0;aspect=fixed;outline=throwing;symbol=message;strokeWidth=2;" parent="C-zkIuJFeFxutX9zqk4B-31" vertex="1">
          <mxGeometry x="430" y="135" width="50" height="50" as="geometry" />
        </mxCell>
        <mxCell id="C-zkIuJFeFxutX9zqk4B-41" style="edgeStyle=orthogonalEdgeStyle;rounded=1;orthogonalLoop=1;jettySize=auto;html=1;entryX=0.5;entryY=0;entryDx=0;entryDy=0;dashed=1;dashPattern=1 2;strokeWidth=2;flowAnimation=0;curved=0;endArrow=open;endFill=0;entryPerimeter=0;" parent="C-zkIuJFeFxutX9zqk4B-31" target="C-zkIuJFeFxutX9zqk4B-40" edge="1">
          <mxGeometry relative="1" as="geometry">
            <mxPoint x="410" y="70" as="sourcePoint" />
            <mxPoint x="380" y="80" as="targetPoint" />
          </mxGeometry>
        </mxCell>
        <object label="Unique Complexity Visualization (UC)" label_es="VisualizaciÃ³n de la complejidad&lt;div&gt;Ãºnica (CU)&lt;/div&gt;" id="C-zkIuJFeFxutX9zqk4B-42">
          <mxCell style="swimlane;html=1;startSize=36;fontStyle=0;collapsible=0;horizontal=0;swimlaneLine=1;swimlaneFillColor=#ffffff;strokeWidth=2;whiteSpace=wrap;" parent="1" vertex="1">
            <mxGeometry x="690" y="383.57" width="460" height="230" as="geometry" />
          </mxCell>
        </object>
        <object label="Unique Complexity Viewer (UC)" label_es="Visualizador&lt;div&gt;CU&lt;/div&gt;" id="C-zkIuJFeFxutX9zqk4B-43">
          <mxCell style="points=[[0.25,0,0],[0.5,0,0],[0.75,0,0],[1,0.25,0],[1,0.5,0],[1,0.75,0],[0.75,1,0],[0.5,1,0],[0.25,1,0],[0,0.75,0],[0,0.5,0],[0,0.25,0]];shape=mxgraph.bpmn.task;whiteSpace=wrap;rectStyle=rounded;size=10;html=1;container=1;expand=0;collapsible=0;taskMarker=abstract;isLoopSub=1;strokeWidth=2;" parent="C-zkIuJFeFxutX9zqk4B-42" vertex="1">
            <mxGeometry x="210" y="120" width="120" height="80" as="geometry" />
          </mxCell>
        </object>
        <mxCell id="C-zkIuJFeFxutX9zqk4B-45" style="edgeStyle=orthogonalEdgeStyle;rounded=0;orthogonalLoop=1;jettySize=auto;html=1;entryX=0;entryY=0.5;entryDx=0;entryDy=0;entryPerimeter=0;endArrow=block;endFill=1;strokeWidth=2;" parent="C-zkIuJFeFxutX9zqk4B-42" target="C-zkIuJFeFxutX9zqk4B-43" edge="1">
          <mxGeometry relative="1" as="geometry">
            <mxPoint x="110" y="159.99999999999977" as="sourcePoint" />
          </mxGeometry>
        </mxCell>
        <mxCell id="C-zkIuJFeFxutX9zqk4B-46" style="edgeStyle=orthogonalEdgeStyle;rounded=0;orthogonalLoop=1;jettySize=auto;html=1;strokeColor=default;strokeWidth=2;align=center;verticalAlign=middle;fontFamily=Helvetica;fontSize=11;fontColor=default;labelBackgroundColor=default;endArrow=block;endFill=1;" parent="C-zkIuJFeFxutX9zqk4B-42" source="C-zkIuJFeFxutX9zqk4B-43" target="C-zkIuJFeFxutX9zqk4B-51" edge="1">
          <mxGeometry relative="1" as="geometry">
            <mxPoint x="429.9999999999998" y="160" as="targetPoint" />
          </mxGeometry>
        </mxCell>
        <mxCell id="C-zkIuJFeFxutX9zqk4B-48" style="edgeStyle=orthogonalEdgeStyle;rounded=1;orthogonalLoop=1;jettySize=auto;html=1;entryX=0.25;entryY=0;entryDx=0;entryDy=0;entryPerimeter=0;dashed=1;dashPattern=1 2;strokeWidth=2;flowAnimation=0;curved=0;endArrow=open;endFill=0;exitX=1;exitY=0.502;exitDx=0;exitDy=0;exitPerimeter=0;" parent="C-zkIuJFeFxutX9zqk4B-42" source="C-zkIuJFeFxutX9zqk4B-50" target="C-zkIuJFeFxutX9zqk4B-43" edge="1">
          <mxGeometry relative="1" as="geometry">
            <mxPoint x="170" y="90.43000000000006" as="sourcePoint" />
            <Array as="points">
              <mxPoint x="240" y="90" />
            </Array>
          </mxGeometry>
        </mxCell>
        <mxCell id="C-zkIuJFeFxutX9zqk4B-49" style="edgeStyle=orthogonalEdgeStyle;rounded=1;orthogonalLoop=1;jettySize=auto;html=1;entryX=0;entryY=0.5;entryDx=0;entryDy=0;dashed=1;dashPattern=1 2;strokeWidth=2;flowAnimation=0;curved=0;endArrow=open;endFill=0;exitX=0.5;exitY=0;exitDx=0;exitDy=0;exitPerimeter=0;entryPerimeter=0;" parent="C-zkIuJFeFxutX9zqk4B-42" source="C-zkIuJFeFxutX9zqk4B-53" target="C-zkIuJFeFxutX9zqk4B-50" edge="1">
          <mxGeometry relative="1" as="geometry">
            <mxPoint x="180" y="80" as="sourcePoint" />
            <mxPoint x="359.9999999999998" y="70" as="targetPoint" />
            <Array as="points">
              <mxPoint x="85" y="90" />
            </Array>
          </mxGeometry>
        </mxCell>
        <object label="History of&lt;div&gt;changes&lt;/div&gt;" label_es="Historial de&lt;div&gt;cambios&lt;/div&gt;" id="C-zkIuJFeFxutX9zqk4B-50">
          <mxCell style="shape=mxgraph.bpmn.data;labelPosition=center;verticalLabelPosition=bottom;align=center;verticalAlign=top;size=15;html=1;strokeWidth=2;" parent="C-zkIuJFeFxutX9zqk4B-42" vertex="1">
            <mxGeometry x="140" y="60" width="40" height="60" as="geometry" />
          </mxCell>
        </object>
        <mxCell id="C-zkIuJFeFxutX9zqk4B-51" value="" style="points=[[0.145,0.145,0],[0.5,0,0],[0.855,0.145,0],[1,0.5,0],[0.855,0.855,0],[0.5,1,0],[0.145,0.855,0],[0,0.5,0]];shape=mxgraph.bpmn.event;html=1;verticalLabelPosition=bottom;labelBackgroundColor=#ffffff;verticalAlign=top;align=center;perimeter=ellipsePerimeter;outlineConnect=0;aspect=fixed;outline=end;symbol=general;strokeWidth=2;" parent="C-zkIuJFeFxutX9zqk4B-42" vertex="1">
          <mxGeometry x="380" y="135" width="50" height="50" as="geometry" />
        </mxCell>
        <mxCell id="C-zkIuJFeFxutX9zqk4B-53" value="" style="points=[[0.145,0.145,0],[0.5,0,0],[0.855,0.145,0],[1,0.5,0],[0.855,0.855,0],[0.5,1,0],[0.145,0.855,0],[0,0.5,0]];shape=mxgraph.bpmn.event;html=1;verticalLabelPosition=bottom;labelBackgroundColor=#ffffff;verticalAlign=top;align=center;perimeter=ellipsePerimeter;outlineConnect=0;aspect=fixed;outline=catching;symbol=message;strokeWidth=1;perimeterSpacing=0;" parent="C-zkIuJFeFxutX9zqk4B-42" vertex="1">
          <mxGeometry x="60" y="136.43000000000006" width="50" height="50" as="geometry" />
        </mxCell>
        <mxCell id="C-zkIuJFeFxutX9zqk4B-54" style="edgeStyle=orthogonalEdgeStyle;rounded=0;orthogonalLoop=1;jettySize=auto;html=1;exitX=1;exitY=0.5;exitDx=0;exitDy=0;startArrow=oval;startFill=1;dashed=1;endArrow=block;endFill=0;strokeWidth=2;dashPattern=8 8;sourcePerimeterSpacing=0;targetPerimeterSpacing=0;jumpSize=6;endSize=11;startSize=11;curved=0;entryX=0;entryY=0.5;entryDx=0;entryDy=0;exitPerimeter=0;entryPerimeter=0;startFillColor=#FFFFFF;" parent="1" source="C-zkIuJFeFxutX9zqk4B-40" target="C-zkIuJFeFxutX9zqk4B-53" edge="1">
          <mxGeometry relative="1" as="geometry">
            <mxPoint x="790" y="99.57" as="sourcePoint" />
            <mxPoint x="791" y="383.57000000000005" as="targetPoint" />
            <Array as="points">
              <mxPoint x="680" y="544" />
              <mxPoint x="780" y="545" />
            </Array>
          </mxGeometry>
        </mxCell>
        <mxCell id="C-zkIuJFeFxutX9zqk4B-55" style="edgeStyle=orthogonalEdgeStyle;rounded=0;orthogonalLoop=1;jettySize=auto;html=1;startArrow=oval;startFill=1;dashed=1;endArrow=block;endFill=0;strokeWidth=2;sourcePerimeterSpacing=0;targetPerimeterSpacing=0;jumpSize=6;endSize=11;startSize=11;curved=0;entryX=0.75;entryY=0;entryDx=0;entryDy=0;startFillColor=#FFFFFF;" parent="1" target="C-zkIuJFeFxutX9zqk4B-31" edge="1">
          <mxGeometry relative="1" as="geometry">
            <mxPoint x="490" y="290" as="sourcePoint" />
            <mxPoint x="771" y="310" as="targetPoint" />
            <Array as="points">
              <mxPoint x="490" y="300" />
            </Array>
          </mxGeometry>
        </mxCell>
      </root>
    </mxGraphModel>
  </diagram>
</mxfile>
